<?xml version="1.0" encoding="UTF-8"?>
<!DOCTYPE svg PUBLIC "-//W3C//DTD SVG 1.1//EN" "http://www.w3.org/Graphics/SVG/1.1/DTD/svg11.dtd">
<svg xmlns="http://www.w3.org/2000/svg" xmlns:xlink="http://www.w3.org/1999/xlink" version="1.1" width="1135px" height="886px" viewBox="-0.5 -0.5 1135 886" style="background-color: rgb(255, 255, 255);"><defs><clipPath id="mx-clip-282-122-30-30-0"><rect x="282" y="122" width="30" height="30"/></clipPath><clipPath id="mx-clip-318-122-144-30-0"><rect x="318" y="122" width="144" height="30"/></clipPath><clipPath id="mx-clip-318-152-144-30-0"><rect x="318" y="152" width="144" height="30"/></clipPath><clipPath id="mx-clip-318-182-144-30-0"><rect x="318" y="182" width="144" height="30"/></clipPath><clipPath id="mx-clip-318-212-144-30-0"><rect x="318" y="212" width="144" height="30"/></clipPath><clipPath id="mx-clip-318-242-144-30-0"><rect x="318" y="242" width="144" height="30"/></clipPath><clipPath id="mx-clip-318-272-144-30-0"><rect x="318" y="272" width="144" height="30"/></clipPath><clipPath id="mx-clip-318-302-144-30-0"><rect x="318" y="302" width="144" height="30"/></clipPath><clipPath id="mx-clip-318-332-144-30-0"><rect x="318" y="332" width="144" height="30"/></clipPath><clipPath id="mx-clip-282-362-30-30-0"><rect x="282" y="362" width="30" height="30"/></clipPath><clipPath id="mx-clip-318-362-144-30-0"><rect x="318" y="362" width="144" height="30"/></clipPath><clipPath id="mx-clip-282-392-30-30-0"><rect x="282" y="392" width="30" height="30"/></clipPath><clipPath id="mx-clip-318-392-144-30-0"><rect x="318" y="392" width="144" height="30"/></clipPath><clipPath id="mx-clip-567-62-30-30-0"><rect x="567" y="62" width="30" height="30"/></clipPath><clipPath id="mx-clip-603-62-144-30-0"><rect x="603" y="62" width="144" height="30"/></clipPath><clipPath id="mx-clip-603-92-144-30-0"><rect x="603" y="92" width="144" height="30"/></clipPath><clipPath id="mx-clip-603-122-144-30-0"><rect x="603" y="122" width="144" height="30"/></clipPath><clipPath id="mx-clip-812-32-30-30-0"><rect x="812" y="32" width="30" height="30"/></clipPath><clipPath id="mx-clip-848-32-144-30-0"><rect x="848" y="32" width="144" height="30"/></clipPath><clipPath id="mx-clip-848-62-144-30-0"><rect x="848" y="62" width="144" height="30"/></clipPath><clipPath id="mx-clip-848-92-144-30-0"><rect x="848" y="92" width="144" height="30"/></clipPath><clipPath id="mx-clip-848-122-144-30-0"><rect x="848" y="122" width="144" height="30"/></clipPath><clipPath id="mx-clip-848-152-144-30-0"><rect x="848" y="152" width="144" height="30"/></clipPath><clipPath id="mx-clip-848-182-144-30-0"><rect x="848" y="182" width="144" height="30"/></clipPath><clipPath id="mx-clip-848-212-144-30-0"><rect x="848" y="212" width="144" height="30"/></clipPath><clipPath id="mx-clip-848-242-144-30-0"><rect x="848" y="242" width="144" height="30"/></clipPath><clipPath id="mx-clip-812-272-30-30-0"><rect x="812" y="272" width="30" height="30"/></clipPath><clipPath id="mx-clip-848-272-144-30-0"><rect x="848" y="272" width="144" height="30"/></clipPath><clipPath id="mx-clip-812-302-30-30-0"><rect x="812" y="302" width="30" height="30"/></clipPath><clipPath id="mx-clip-848-302-144-30-0"><rect x="848" y="302" width="144" height="30"/></clipPath><clipPath id="mx-clip-522-492-30-30-0"><rect x="522" y="492" width="30" height="30"/></clipPath><clipPath id="mx-clip-558-492-144-30-0"><rect x="558" y="492" width="144" height="30"/></clipPath><clipPath id="mx-clip-558-522-144-30-0"><rect x="558" y="522" width="144" height="30"/></clipPath><clipPath id="mx-clip-558-552-144-30-0"><rect x="558" y="552" width="144" height="30"/></clipPath><clipPath id="mx-clip-558-582-144-30-0"><rect x="558" y="582" width="144" height="30"/></clipPath><clipPath id="mx-clip-952-702-30-30-0"><rect x="952" y="702" width="30" height="30"/></clipPath><clipPath id="mx-clip-988-702-144-30-0"><rect x="988" y="702" width="144" height="30"/></clipPath><clipPath id="mx-clip-988-732-144-30-0"><rect x="988" y="732" width="144" height="30"/></clipPath><clipPath id="mx-clip-988-762-144-30-0"><rect x="988" y="762" width="144" height="30"/></clipPath><clipPath id="mx-clip-752-392-30-30-0"><rect x="752" y="392" width="30" height="30"/></clipPath><clipPath id="mx-clip-788-392-144-30-0"><rect x="788" y="392" width="144" height="30"/></clipPath><clipPath id="mx-clip-788-422-144-30-0"><rect x="788" y="422" width="144" height="30"/></clipPath><clipPath id="mx-clip-788-452-144-30-0"><rect x="788" y="452" width="144" height="30"/></clipPath><clipPath id="mx-clip-752-482-30-30-0"><rect x="752" y="482" width="30" height="30"/></clipPath><clipPath id="mx-clip-788-482-144-30-0"><rect x="788" y="482" width="144" height="30"/></clipPath><clipPath id="mx-clip-752-512-30-30-0"><rect x="752" y="512" width="30" height="30"/></clipPath><clipPath id="mx-clip-788-512-144-30-0"><rect x="788" y="512" width="144" height="30"/></clipPath><clipPath id="mx-clip-2-482-30-30-0"><rect x="2" y="482" width="30" height="30"/></clipPath><clipPath id="mx-clip-38-482-144-30-0"><rect x="38" y="482" width="144" height="30"/></clipPath><clipPath id="mx-clip-38-512-144-30-0"><rect x="38" y="512" width="144" height="30"/></clipPath><clipPath id="mx-clip-38-542-144-30-0"><rect x="38" y="542" width="144" height="30"/></clipPath><clipPath id="mx-clip-38-572-144-30-0"><rect x="38" y="572" width="144" height="30"/></clipPath><clipPath id="mx-clip-38-602-144-30-0"><rect x="38" y="602" width="144" height="30"/></clipPath><clipPath id="mx-clip-2-632-30-30-0"><rect x="2" y="632" width="30" height="30"/></clipPath><clipPath id="mx-clip-38-632-144-30-0"><rect x="38" y="632" width="144" height="30"/></clipPath><clipPath id="mx-clip-2-662-30-30-0"><rect x="2" y="662" width="30" height="30"/></clipPath><clipPath id="mx-clip-38-662-144-30-0"><rect x="38" y="662" width="144" height="30"/></clipPath><clipPath id="mx-clip-332-732-30-30-0"><rect x="332" y="732" width="30" height="30"/></clipPath><clipPath id="mx-clip-368-732-144-30-0"><rect x="368" y="732" width="144" height="30"/></clipPath><clipPath id="mx-clip-368-762-144-30-0"><rect x="368" y="762" width="144" height="30"/></clipPath><clipPath id="mx-clip-368-792-144-30-0"><rect x="368" y="792" width="144" height="30"/></clipPath><clipPath id="mx-clip-368-822-144-30-0"><rect x="368" y="822" width="144" height="30"/></clipPath><clipPath id="mx-clip-652-672-30-30-0"><rect x="652" y="672" width="30" height="30"/></clipPath><clipPath id="mx-clip-688-672-144-30-0"><rect x="688" y="672" width="144" height="30"/></clipPath><clipPath id="mx-clip-688-702-144-30-0"><rect x="688" y="702" width="144" height="30"/></clipPath><clipPath id="mx-clip-688-732-144-30-0"><rect x="688" y="732" width="144" height="30"/></clipPath><clipPath id="mx-clip-688-762-144-30-0"><rect x="688" y="762" width="144" height="30"/></clipPath><clipPath id="mx-clip-688-792-144-30-0"><rect x="688" y="792" width="144" height="30"/></clipPath><clipPath id="mx-clip-652-822-30-30-0"><rect x="652" y="822" width="30" height="30"/></clipPath><clipPath id="mx-clip-688-822-144-30-0"><rect x="688" y="822" width="144" height="30"/></clipPath><clipPath id="mx-clip-652-852-30-30-0"><rect x="652" y="852" width="30" height="30"/></clipPath><clipPath id="mx-clip-688-852-144-30-0"><rect x="688" y="852" width="144" height="30"/></clipPath></defs><g><path d="M 282 122 L 282 92 L 462 92 L 462 122" fill="rgb(255, 255, 255)" stroke="rgb(0, 0, 0)" stroke-miterlimit="10" pointer-events="all"/><path d="M 282 122 L 282 422 L 462 422 L 462 122" fill="none" stroke="rgb(0, 0, 0)" stroke-miterlimit="10" pointer-events="none"/><path d="M 282 122 L 462 122" fill="none" stroke="rgb(0, 0, 0)" stroke-miterlimit="10" pointer-events="none"/><path d="M 312 122 L 312 152 L 312 182 L 312 212 L 312 242 L 312 272 L 312 302 L 312 332 L 312 362 L 312 392 L 312 422" fill="none" stroke="rgb(0, 0, 0)" stroke-miterlimit="10" pointer-events="none"/><g fill="rgb(0, 0, 0)" font-family="Helvetica" font-weight="bold" pointer-events="none" text-anchor="middle" font-size="10px"><text x="371.5" y="110.5">Usuário</text></g><path d="M 282 122 M 462 122 M 462 152 L 282 152" fill="none" stroke="rgb(0, 0, 0)" stroke-linecap="square" stroke-miterlimit="10" pointer-events="none"/><path d="M 282 122 M 312 122 M 312 152 M 282 152" fill="none" stroke="rgb(0, 0, 0)" stroke-linecap="square" stroke-miterlimit="10" pointer-events="none"/><g fill="rgb(0, 0, 0)" font-family="Helvetica" font-weight="bold" pointer-events="none" clip-path="url(#mx-clip-282-122-30-30-0)" text-anchor="middle" font-size="10px"><text x="296.5" y="140.5">PK</text></g><path d="M 312 122 M 462 122 M 462 152 M 312 152" fill="none" stroke="rgb(0, 0, 0)" stroke-linecap="square" stroke-miterlimit="10" pointer-events="none"/><g fill="rgb(0, 0, 0)" font-family="Helvetica" font-weight="bold" text-decoration="underline" pointer-events="none" clip-path="url(#mx-clip-318-122-144-30-0)" font-size="10px"><text x="319.5" y="140.5">ID</text></g><path d="M 282 152 M 312 152 M 312 182 M 282 182" fill="none" stroke="rgb(0, 0, 0)" stroke-linecap="square" stroke-miterlimit="10" pointer-events="none"/><path d="M 312 152 M 462 152 M 462 182 M 312 182" fill="none" stroke="rgb(0, 0, 0)" stroke-linecap="square" stroke-miterlimit="10" pointer-events="none"/><g fill="rgb(0, 0, 0)" font-family="Helvetica" font-weight="bold" text-decoration="underline" pointer-events="none" clip-path="url(#mx-clip-318-152-144-30-0)" font-size="10px"><text x="319.5" y="170.5">Unique Email</text></g><path d="M 282 182 M 312 182 M 312 212 M 282 212" fill="none" stroke="rgb(0, 0, 0)" stroke-linecap="square" stroke-miterlimit="10" pointer-events="none"/><path d="M 312 182 M 462 182 M 462 212 M 312 212" fill="none" stroke="rgb(0, 0, 0)" stroke-linecap="square" stroke-miterlimit="10" pointer-events="none"/><g fill="rgb(0, 0, 0)" font-family="Helvetica" pointer-events="none" clip-path="url(#mx-clip-318-182-144-30-0)" font-size="10px"><text x="319.5" y="200.5">Nome Completo</text></g><path d="M 282 212 M 312 212 M 312 242 M 282 242" fill="none" stroke="rgb(0, 0, 0)" stroke-linecap="square" stroke-miterlimit="10" pointer-events="none"/><path d="M 312 212 M 462 212 M 462 242 M 312 242" fill="none" stroke="rgb(0, 0, 0)" stroke-linecap="square" stroke-miterlimit="10" pointer-events="none"/><g fill="rgb(0, 0, 0)" font-family="Helvetica" pointer-events="none" clip-path="url(#mx-clip-318-212-144-30-0)" font-size="10px"><text x="319.5" y="230.5">Senha</text></g><path d="M 282 242 M 312 242 M 312 272 M 282 272" fill="none" stroke="rgb(0, 0, 0)" stroke-linecap="square" stroke-miterlimit="10" pointer-events="none"/><path d="M 312 242 M 462 242 M 462 272 M 312 272" fill="none" stroke="rgb(0, 0, 0)" stroke-linecap="square" stroke-miterlimit="10" pointer-events="none"/><g fill="rgb(0, 0, 0)" font-family="Helvetica" pointer-events="none" clip-path="url(#mx-clip-318-242-144-30-0)" font-size="10px"><text x="319.5" y="260.5">Documento de Identificação</text></g><path d="M 282 272 M 312 272 M 312 302 M 282 302" fill="none" stroke="rgb(0, 0, 0)" stroke-linecap="square" stroke-miterlimit="10" pointer-events="none"/><path d="M 312 272 M 462 272 M 462 302 M 312 302" fill="none" stroke="rgb(0, 0, 0)" stroke-linecap="square" stroke-miterlimit="10" pointer-events="none"/><g fill="rgb(0, 0, 0)" font-family="Helvetica" pointer-events="none" clip-path="url(#mx-clip-318-272-144-30-0)" font-size="10px"><text x="319.5" y="290.5">CPF</text></g><path d="M 282 302 M 312 302 M 312 332 M 282 332" fill="none" stroke="rgb(0, 0, 0)" stroke-linecap="square" stroke-miterlimit="10" pointer-events="none"/><path d="M 312 302 M 462 302 M 462 332 M 312 332" fill="none" stroke="rgb(0, 0, 0)" stroke-linecap="square" stroke-miterlimit="10" pointer-events="none"/><g fill="rgb(0, 0, 0)" font-family="Helvetica" pointer-events="none" clip-path="url(#mx-clip-318-302-144-30-0)" font-size="10px"><text x="319.5" y="320.5">Telefone</text></g><path d="M 282 332 M 312 332 M 312 362 M 282 362" fill="none" stroke="rgb(0, 0, 0)" stroke-linecap="square" stroke-miterlimit="10" pointer-events="none"/><path d="M 312 332 M 462 332 M 462 362 M 312 362" fill="none" stroke="rgb(0, 0, 0)" stroke-linecap="square" stroke-miterlimit="10" pointer-events="none"/><g fill="rgb(0, 0, 0)" font-family="Helvetica" pointer-events="none" clip-path="url(#mx-clip-318-332-144-30-0)" font-size="10px"><text x="319.5" y="350.5">Data de Nascimento</text></g><path d="M 282 362 L 312 362 M 312 392 M 282 392" fill="none" stroke="rgb(0, 0, 0)" stroke-linecap="square" stroke-miterlimit="10" pointer-events="none"/><g fill="rgb(0, 0, 0)" font-family="Helvetica" font-weight="bold" text-decoration="underline" pointer-events="none" clip-path="url(#mx-clip-282-362-30-30-0)" text-anchor="middle" font-size="10px"><text x="296.5" y="380.5">FK</text></g><path d="M 312 362 L 462 362 M 462 392 M 312 392" fill="none" stroke="rgb(0, 0, 0)" stroke-linecap="square" stroke-miterlimit="10" pointer-events="none"/><g fill="rgb(0, 0, 0)" font-family="Helvetica" font-weight="bold" text-decoration="underline" pointer-events="none" clip-path="url(#mx-clip-318-362-144-30-0)" font-size="10px"><text x="319.5" y="380.5">ID do Responsável</text></g><path d="M 282 392 M 312 392 M 312 422 M 282 422" fill="none" stroke="rgb(0, 0, 0)" stroke-linecap="square" stroke-miterlimit="10" pointer-events="none"/><g fill="rgb(0, 0, 0)" font-family="Helvetica" font-weight="bold" text-decoration="underline" pointer-events="none" clip-path="url(#mx-clip-282-392-30-30-0)" text-anchor="middle" font-size="10px"><text x="296.5" y="410.5">FK</text></g><path d="M 312 392 M 462 392 M 462 422 M 312 422" fill="none" stroke="rgb(0, 0, 0)" stroke-linecap="square" stroke-miterlimit="10" pointer-events="none"/><g fill="rgb(0, 0, 0)" font-family="Helvetica" font-weight="bold" text-decoration="underline" pointer-events="none" clip-path="url(#mx-clip-318-392-144-30-0)" font-size="10px"><text x="319.5" y="410.5">ID do Perfil</text></g><path d="M 567 62 L 567 32 L 747 32 L 747 62" fill="rgb(255, 255, 255)" stroke="rgb(0, 0, 0)" stroke-miterlimit="10" pointer-events="none"/><path d="M 567 62 L 567 152 L 747 152 L 747 62" fill="none" stroke="rgb(0, 0, 0)" stroke-miterlimit="10" pointer-events="none"/><path d="M 567 62 L 747 62" fill="none" stroke="rgb(0, 0, 0)" stroke-miterlimit="10" pointer-events="none"/><path d="M 597 62 L 597 92 L 597 122 L 597 152" fill="none" stroke="rgb(0, 0, 0)" stroke-miterlimit="10" pointer-events="none"/><g fill="rgb(0, 0, 0)" font-family="Helvetica" font-weight="bold" pointer-events="none" text-anchor="middle" font-size="10px"><text x="656.5" y="50.5">Perfil</text></g><path d="M 567 62 M 747 62 M 747 92 L 567 92" fill="none" stroke="rgb(0, 0, 0)" stroke-linecap="square" stroke-miterlimit="10" pointer-events="none"/><path d="M 567 62 M 597 62 M 597 92 M 567 92" fill="none" stroke="rgb(0, 0, 0)" stroke-linecap="square" stroke-miterlimit="10" pointer-events="none"/><g fill="rgb(0, 0, 0)" font-family="Helvetica" font-weight="bold" pointer-events="none" clip-path="url(#mx-clip-567-62-30-30-0)" text-anchor="middle" font-size="10px"><text x="581.5" y="80.5">PK</text></g><path d="M 597 62 M 747 62 M 747 92 M 597 92" fill="none" stroke="rgb(0, 0, 0)" stroke-linecap="square" stroke-miterlimit="10" pointer-events="none"/><g fill="rgb(0, 0, 0)" font-family="Helvetica" font-weight="bold" text-decoration="underline" pointer-events="none" clip-path="url(#mx-clip-603-62-144-30-0)" font-size="10px"><text x="604.5" y="80.5">ID</text></g><path d="M 567 92 M 597 92 M 597 122 M 567 122" fill="none" stroke="rgb(0, 0, 0)" stroke-linecap="square" stroke-miterlimit="10" pointer-events="none"/><path d="M 597 92 M 747 92 M 747 122 M 597 122" fill="none" stroke="rgb(0, 0, 0)" stroke-linecap="square" stroke-miterlimit="10" pointer-events="none"/><g fill="rgb(0, 0, 0)" font-family="Helvetica" pointer-events="none" clip-path="url(#mx-clip-603-92-144-30-0)" font-size="10px"><text x="604.5" y="110.5">Tipo</text></g><path d="M 567 122 M 597 122 M 597 152 M 567 152" fill="none" stroke="rgb(0, 0, 0)" stroke-linecap="square" stroke-miterlimit="10" pointer-events="none"/><path d="M 597 122 M 747 122 M 747 152 M 597 152" fill="none" stroke="rgb(0, 0, 0)" stroke-linecap="square" stroke-miterlimit="10" pointer-events="none"/><g fill="rgb(0, 0, 0)" font-family="Helvetica" pointer-events="none" clip-path="url(#mx-clip-603-122-144-30-0)" font-size="10px"><text x="604.5" y="140.5">Descrição</text></g><path d="M 812 32 L 812 2 L 992 2 L 992 32" fill="rgb(255, 255, 255)" stroke="rgb(0, 0, 0)" stroke-miterlimit="10" pointer-events="none"/><path d="M 812 32 L 812 332 L 992 332 L 992 32" fill="none" stroke="rgb(0, 0, 0)" stroke-miterlimit="10" pointer-events="none"/><path d="M 812 32 L 992 32" fill="none" stroke="rgb(0, 0, 0)" stroke-miterlimit="10" pointer-events="none"/><path d="M 842 32 L 842 62 L 842 92 L 842 122 L 842 152 L 842 182 L 842 212 L 842 242 L 842 272 L 842 302 L 842 332" fill="none" stroke="rgb(0, 0, 0)" stroke-miterlimit="10" pointer-events="none"/><g fill="rgb(0, 0, 0)" font-family="Helvetica" font-weight="bold" pointer-events="none" text-anchor="middle" font-size="10px"><text x="901.5" y="20.5">Endereço</text></g><path d="M 812 32 M 992 32 M 992 62 L 812 62" fill="none" stroke="rgb(0, 0, 0)" stroke-linecap="square" stroke-miterlimit="10" pointer-events="none"/><path d="M 812 32 M 842 32 M 842 62 M 812 62" fill="none" stroke="rgb(0, 0, 0)" stroke-linecap="square" stroke-miterlimit="10" pointer-events="none"/><g fill="rgb(0, 0, 0)" font-family="Helvetica" font-weight="bold" pointer-events="none" clip-path="url(#mx-clip-812-32-30-30-0)" text-anchor="middle" font-size="10px"><text x="826.5" y="50.5">PK</text></g><path d="M 842 32 M 992 32 M 992 62 M 842 62" fill="none" stroke="rgb(0, 0, 0)" stroke-linecap="square" stroke-miterlimit="10" pointer-events="none"/><g fill="rgb(0, 0, 0)" font-family="Helvetica" font-weight="bold" text-decoration="underline" pointer-events="none" clip-path="url(#mx-clip-848-32-144-30-0)" font-size="10px"><text x="849.5" y="50.5">ID</text></g><path d="M 812 62 M 842 62 M 842 92 M 812 92" fill="none" stroke="rgb(0, 0, 0)" stroke-linecap="square" stroke-miterlimit="10" pointer-events="none"/><path d="M 842 62 M 992 62 M 992 92 M 842 92" fill="none" stroke="rgb(0, 0, 0)" stroke-linecap="square" stroke-miterlimit="10" pointer-events="none"/><g fill="rgb(0, 0, 0)" font-family="Helvetica" pointer-events="none" clip-path="url(#mx-clip-848-62-144-30-0)" font-size="10px"><text x="849.5" y="80.5">Rua</text></g><path d="M 812 92 M 842 92 M 842 122 M 812 122" fill="none" stroke="rgb(0, 0, 0)" stroke-linecap="square" stroke-miterlimit="10" pointer-events="none"/><path d="M 842 92 M 992 92 M 992 122 M 842 122" fill="none" stroke="rgb(0, 0, 0)" stroke-linecap="square" stroke-miterlimit="10" pointer-events="none"/><g fill="rgb(0, 0, 0)" font-family="Helvetica" pointer-events="none" clip-path="url(#mx-clip-848-92-144-30-0)" font-size="10px"><text x="849.5" y="110.5">Número</text></g><path d="M 812 122 M 842 122 M 842 152 M 812 152" fill="none" stroke="rgb(0, 0, 0)" stroke-linecap="square" stroke-miterlimit="10" pointer-events="none"/><path d="M 842 122 M 992 122 M 992 152 M 842 152" fill="none" stroke="rgb(0, 0, 0)" stroke-linecap="square" stroke-miterlimit="10" pointer-events="none"/><g fill="rgb(0, 0, 0)" font-family="Helvetica" pointer-events="none" clip-path="url(#mx-clip-848-122-144-30-0)" font-size="10px"><text x="849.5" y="140.5">CEP</text></g><path d="M 812 152 M 842 152 M 842 182 M 812 182" fill="none" stroke="rgb(0, 0, 0)" stroke-linecap="square" stroke-miterlimit="10" pointer-events="none"/><path d="M 842 152 M 992 152 M 992 182 M 842 182" fill="none" stroke="rgb(0, 0, 0)" stroke-linecap="square" stroke-miterlimit="10" pointer-events="none"/><g fill="rgb(0, 0, 0)" font-family="Helvetica" pointer-events="none" clip-path="url(#mx-clip-848-152-144-30-0)" font-size="10px"><text x="849.5" y="170.5">Bairro</text></g><path d="M 812 182 M 842 182 M 842 212 M 812 212" fill="none" stroke="rgb(0, 0, 0)" stroke-linecap="square" stroke-miterlimit="10" pointer-events="none"/><path d="M 842 182 M 992 182 M 992 212 M 842 212" fill="none" stroke="rgb(0, 0, 0)" stroke-linecap="square" stroke-miterlimit="10" pointer-events="none"/><g fill="rgb(0, 0, 0)" font-family="Helvetica" pointer-events="none" clip-path="url(#mx-clip-848-182-144-30-0)" font-size="10px"><text x="849.5" y="200.5">Cidade</text></g><path d="M 812 212 M 842 212 M 842 242 M 812 242" fill="none" stroke="rgb(0, 0, 0)" stroke-linecap="square" stroke-miterlimit="10" pointer-events="none"/><path d="M 842 212 M 992 212 M 992 242 M 842 242" fill="none" stroke="rgb(0, 0, 0)" stroke-linecap="square" stroke-miterlimit="10" pointer-events="none"/><g fill="rgb(0, 0, 0)" font-family="Helvetica" pointer-events="none" clip-path="url(#mx-clip-848-212-144-30-0)" font-size="10px"><text x="849.5" y="230.5">UF</text></g><path d="M 812 242 M 842 242 M 842 272 M 812 272" fill="none" stroke="rgb(0, 0, 0)" stroke-linecap="square" stroke-miterlimit="10" pointer-events="none"/><path d="M 842 242 M 992 242 M 992 272 M 842 272" fill="none" stroke="rgb(0, 0, 0)" stroke-linecap="square" stroke-miterlimit="10" pointer-events="none"/><g fill="rgb(0, 0, 0)" font-family="Helvetica" pointer-events="none" clip-path="url(#mx-clip-848-242-144-30-0)" font-size="10px"><text x="849.5" y="260.5">Complemento</text></g><path d="M 812 272 L 842 272 M 842 302 M 812 302" fill="none" stroke="rgb(0, 0, 0)" stroke-linecap="square" stroke-miterlimit="10" pointer-events="none"/><g fill="rgb(0, 0, 0)" font-family="Helvetica" font-weight="bold" text-decoration="underline" pointer-events="none" clip-path="url(#mx-clip-812-272-30-30-0)" text-anchor="middle" font-size="10px"><text x="826.5" y="290.5">FK</text></g><path d="M 842 272 L 992 272 M 992 302 M 842 302" fill="none" stroke="rgb(0, 0, 0)" stroke-linecap="square" stroke-miterlimit="10" pointer-events="none"/><g fill="rgb(0, 0, 0)" font-family="Helvetica" font-weight="bold" text-decoration="underline" pointer-events="none" clip-path="url(#mx-clip-848-272-144-30-0)" font-size="10px"><text x="849.5" y="290.5">ID do Usuário</text></g><path d="M 812 302 M 842 302 M 842 332 M 812 332" fill="none" stroke="rgb(0, 0, 0)" stroke-linecap="square" stroke-miterlimit="10" pointer-events="none"/><g fill="rgb(0, 0, 0)" font-family="Helvetica" font-weight="bold" text-decoration="underline" pointer-events="none" clip-path="url(#mx-clip-812-302-30-30-0)" text-anchor="middle" font-size="10px"><text x="826.5" y="320.5">FK</text></g><path d="M 842 302 M 992 302 M 992 332 M 842 332" fill="none" stroke="rgb(0, 0, 0)" stroke-linecap="square" stroke-miterlimit="10" pointer-events="none"/><g fill="rgb(0, 0, 0)" font-family="Helvetica" font-weight="bold" text-decoration="underline" pointer-events="none" clip-path="url(#mx-clip-848-302-144-30-0)" font-size="10px"><text x="849.5" y="320.5">ID da Instituição</text></g><path d="M 522 492 L 522 462 L 702 462 L 702 492" fill="rgb(255, 255, 255)" stroke="rgb(0, 0, 0)" stroke-miterlimit="10" pointer-events="none"/><path d="M 522 492 L 522 612 L 702 612 L 702 492" fill="none" stroke="rgb(0, 0, 0)" stroke-miterlimit="10" pointer-events="none"/><path d="M 522 492 L 702 492" fill="none" stroke="rgb(0, 0, 0)" stroke-miterlimit="10" pointer-events="none"/><path d="M 552 492 L 552 522 L 552 552 L 552 582 L 552 612" fill="none" stroke="rgb(0, 0, 0)" stroke-miterlimit="10" pointer-events="none"/><g fill="rgb(0, 0, 0)" font-family="Helvetica" font-weight="bold" pointer-events="none" text-anchor="middle" font-size="10px"><text x="611.5" y="480.5">Responsável</text></g><path d="M 522 492 M 702 492 M 702 522 L 522 522" fill="none" stroke="rgb(0, 0, 0)" stroke-linecap="square" stroke-miterlimit="10" pointer-events="none"/><path d="M 522 492 M 552 492 M 552 522 M 522 522" fill="none" stroke="rgb(0, 0, 0)" stroke-linecap="square" stroke-miterlimit="10" pointer-events="none"/><g fill="rgb(0, 0, 0)" font-family="Helvetica" font-weight="bold" pointer-events="none" clip-path="url(#mx-clip-522-492-30-30-0)" text-anchor="middle" font-size="10px"><text x="536.5" y="510.5">PK</text></g><path d="M 552 492 M 702 492 M 702 522 M 552 522" fill="none" stroke="rgb(0, 0, 0)" stroke-linecap="square" stroke-miterlimit="10" pointer-events="none"/><g fill="rgb(0, 0, 0)" font-family="Helvetica" font-weight="bold" text-decoration="underline" pointer-events="none" clip-path="url(#mx-clip-558-492-144-30-0)" font-size="10px"><text x="559.5" y="510.5">ID</text></g><path d="M 522 522 M 552 522 M 552 552 M 522 552" fill="none" stroke="rgb(0, 0, 0)" stroke-linecap="square" stroke-miterlimit="10" pointer-events="none"/><path d="M 552 522 M 702 522 M 702 552 M 552 552" fill="none" stroke="rgb(0, 0, 0)" stroke-linecap="square" stroke-miterlimit="10" pointer-events="none"/><g fill="rgb(0, 0, 0)" font-family="Helvetica" pointer-events="none" clip-path="url(#mx-clip-558-522-144-30-0)" font-size="10px"><text x="559.5" y="540.5">Nome Completo</text></g><path d="M 522 552 M 552 552 M 552 582 M 522 582" fill="none" stroke="rgb(0, 0, 0)" stroke-linecap="square" stroke-miterlimit="10" pointer-events="none"/><path d="M 552 552 M 702 552 M 702 582 M 552 582" fill="none" stroke="rgb(0, 0, 0)" stroke-linecap="square" stroke-miterlimit="10" pointer-events="none"/><g fill="rgb(0, 0, 0)" font-family="Helvetica" pointer-events="none" clip-path="url(#mx-clip-558-552-144-30-0)" font-size="10px"><text x="559.5" y="570.5">Telefone</text></g><path d="M 522 582 M 552 582 M 552 612 M 522 612" fill="none" stroke="rgb(0, 0, 0)" stroke-linecap="square" stroke-miterlimit="10" pointer-events="none"/><path d="M 552 582 M 702 582 M 702 612 M 552 612" fill="none" stroke="rgb(0, 0, 0)" stroke-linecap="square" stroke-miterlimit="10" pointer-events="none"/><g fill="rgb(0, 0, 0)" font-family="Helvetica" pointer-events="none" clip-path="url(#mx-clip-558-582-144-30-0)" font-size="10px"><text x="559.5" y="600.5">Tipo de parentesco</text></g><path d="M 952 702 L 952 672 L 1132 672 L 1132 702" fill="rgb(255, 255, 255)" stroke="rgb(0, 0, 0)" stroke-miterlimit="10" pointer-events="none"/><path d="M 952 702 L 952 792 L 1132 792 L 1132 702" fill="none" stroke="rgb(0, 0, 0)" stroke-miterlimit="10" pointer-events="none"/><path d="M 952 702 L 1132 702" fill="none" stroke="rgb(0, 0, 0)" stroke-miterlimit="10" pointer-events="none"/><path d="M 982 702 L 982 732 L 982 762 L 982 792" fill="none" stroke="rgb(0, 0, 0)" stroke-miterlimit="10" pointer-events="none"/><g fill="rgb(0, 0, 0)" font-family="Helvetica" font-weight="bold" pointer-events="none" text-anchor="middle" font-size="10px"><text x="1041.5" y="690.5">Instituição</text></g><path d="M 952 702 M 1132 702 M 1132 732 L 952 732" fill="none" stroke="rgb(0, 0, 0)" stroke-linecap="square" stroke-miterlimit="10" pointer-events="none"/><path d="M 952 702 M 982 702 M 982 732 M 952 732" fill="none" stroke="rgb(0, 0, 0)" stroke-linecap="square" stroke-miterlimit="10" pointer-events="none"/><g fill="rgb(0, 0, 0)" font-family="Helvetica" font-weight="bold" pointer-events="none" clip-path="url(#mx-clip-952-702-30-30-0)" text-anchor="middle" font-size="10px"><text x="966.5" y="720.5">PK</text></g><path d="M 982 702 M 1132 702 M 1132 732 M 982 732" fill="none" stroke="rgb(0, 0, 0)" stroke-linecap="square" stroke-miterlimit="10" pointer-events="none"/><g fill="rgb(0, 0, 0)" font-family="Helvetica" font-weight="bold" text-decoration="underline" pointer-events="none" clip-path="url(#mx-clip-988-702-144-30-0)" font-size="10px"><text x="989.5" y="720.5">ID</text></g><path d="M 952 732 M 982 732 M 982 762 M 952 762" fill="none" stroke="rgb(0, 0, 0)" stroke-linecap="square" stroke-miterlimit="10" pointer-events="none"/><path d="M 982 732 M 1132 732 M 1132 762 M 982 762" fill="none" stroke="rgb(0, 0, 0)" stroke-linecap="square" stroke-miterlimit="10" pointer-events="none"/><g fill="rgb(0, 0, 0)" font-family="Helvetica" pointer-events="none" clip-path="url(#mx-clip-988-732-144-30-0)" font-size="10px"><text x="989.5" y="750.5">Razão Social</text></g><path d="M 952 762 M 982 762 M 982 792 M 952 792" fill="none" stroke="rgb(0, 0, 0)" stroke-linecap="square" stroke-miterlimit="10" pointer-events="none"/><path d="M 982 762 M 1132 762 M 1132 792 M 982 792" fill="none" stroke="rgb(0, 0, 0)" stroke-linecap="square" stroke-miterlimit="10" pointer-events="none"/><g fill="rgb(0, 0, 0)" font-family="Helvetica" pointer-events="none" clip-path="url(#mx-clip-988-762-144-30-0)" font-size="10px"><text x="989.5" y="780.5">CNPJ</text></g><path d="M 752 392 L 752 362 L 932 362 L 932 392" fill="rgb(255, 255, 255)" stroke="rgb(0, 0, 0)" stroke-miterlimit="10" pointer-events="none"/><path d="M 752 392 L 752 542 L 932 542 L 932 392" fill="none" stroke="rgb(0, 0, 0)" stroke-miterlimit="10" pointer-events="none"/><path d="M 752 392 L 932 392" fill="none" stroke="rgb(0, 0, 0)" stroke-miterlimit="10" pointer-events="none"/><path d="M 782 392 L 782 422 L 782 452 L 782 482 L 782 512 L 782 542" fill="none" stroke="rgb(0, 0, 0)" stroke-miterlimit="10" pointer-events="none"/><g fill="rgb(0, 0, 0)" font-family="Helvetica" font-weight="bold" pointer-events="none" text-anchor="middle" font-size="10px"><text x="841.5" y="380.5">Colaborador</text></g><path d="M 752 392 M 932 392 M 932 422 L 752 422" fill="none" stroke="rgb(0, 0, 0)" stroke-linecap="square" stroke-miterlimit="10" pointer-events="none"/><path d="M 752 392 M 782 392 M 782 422 M 752 422" fill="none" stroke="rgb(0, 0, 0)" stroke-linecap="square" stroke-miterlimit="10" pointer-events="none"/><g fill="rgb(0, 0, 0)" font-family="Helvetica" font-weight="bold" pointer-events="none" clip-path="url(#mx-clip-752-392-30-30-0)" text-anchor="middle" font-size="10px"><text x="766.5" y="410.5">PK</text></g><path d="M 782 392 M 932 392 M 932 422 M 782 422" fill="none" stroke="rgb(0, 0, 0)" stroke-linecap="square" stroke-miterlimit="10" pointer-events="none"/><g fill="rgb(0, 0, 0)" font-family="Helvetica" font-weight="bold" text-decoration="underline" pointer-events="none" clip-path="url(#mx-clip-788-392-144-30-0)" font-size="10px"><text x="789.5" y="410.5">ID</text></g><path d="M 752 422 M 782 422 M 782 452 M 752 452" fill="none" stroke="rgb(0, 0, 0)" stroke-linecap="square" stroke-miterlimit="10" pointer-events="none"/><path d="M 782 422 M 932 422 M 932 452 M 782 452" fill="none" stroke="rgb(0, 0, 0)" stroke-linecap="square" stroke-miterlimit="10" pointer-events="none"/><g fill="rgb(0, 0, 0)" font-family="Helvetica" pointer-events="none" clip-path="url(#mx-clip-788-422-144-30-0)" font-size="10px"><text x="789.5" y="440.5">CRM</text></g><path d="M 752 452 M 782 452 M 782 482 M 752 482" fill="none" stroke="rgb(0, 0, 0)" stroke-linecap="square" stroke-miterlimit="10" pointer-events="none"/><path d="M 782 452 M 932 452 M 932 482 M 782 482" fill="none" stroke="rgb(0, 0, 0)" stroke-linecap="square" stroke-miterlimit="10" pointer-events="none"/><g fill="rgb(0, 0, 0)" font-family="Helvetica" pointer-events="none" clip-path="url(#mx-clip-788-452-144-30-0)" font-size="10px"><text x="789.5" y="470.5">Cargo</text></g><path d="M 752 482 L 782 482 M 782 512 M 752 512" fill="none" stroke="rgb(0, 0, 0)" stroke-linecap="square" stroke-miterlimit="10" pointer-events="none"/><g fill="rgb(0, 0, 0)" font-family="Helvetica" font-weight="bold" text-decoration="underline" pointer-events="none" clip-path="url(#mx-clip-752-482-30-30-0)" text-anchor="middle" font-size="10px"><text x="766.5" y="500.5">FK</text></g><path d="M 782 482 L 932 482 M 932 512 M 782 512" fill="none" stroke="rgb(0, 0, 0)" stroke-linecap="square" stroke-miterlimit="10" pointer-events="none"/><g fill="rgb(0, 0, 0)" font-family="Helvetica" font-weight="bold" text-decoration="underline" pointer-events="none" clip-path="url(#mx-clip-788-482-144-30-0)" font-size="10px"><text x="789.5" y="500.5">ID do Usuário</text></g><path d="M 752 512 M 782 512 M 782 542 M 752 542" fill="none" stroke="rgb(0, 0, 0)" stroke-linecap="square" stroke-miterlimit="10" pointer-events="none"/><g fill="rgb(0, 0, 0)" font-family="Helvetica" font-weight="bold" text-decoration="underline" pointer-events="none" clip-path="url(#mx-clip-752-512-30-30-0)" text-anchor="middle" font-size="10px"><text x="766.5" y="530.5">FK</text></g><path d="M 782 512 M 932 512 M 932 542 M 782 542" fill="none" stroke="rgb(0, 0, 0)" stroke-linecap="square" stroke-miterlimit="10" pointer-events="none"/><g fill="rgb(0, 0, 0)" font-family="Helvetica" font-weight="bold" text-decoration="underline" pointer-events="none" clip-path="url(#mx-clip-788-512-144-30-0)" font-size="10px"><text x="789.5" y="530.5">ID da Instituição</text></g><path d="M 2 482 L 2 452 L 182 452 L 182 482" fill="rgb(255, 255, 255)" stroke="rgb(0, 0, 0)" stroke-miterlimit="10" pointer-events="none"/><path d="M 2 482 L 2 692 L 182 692 L 182 482" fill="none" stroke="rgb(0, 0, 0)" stroke-miterlimit="10" pointer-events="none"/><path d="M 2 482 L 182 482" fill="none" stroke="rgb(0, 0, 0)" stroke-miterlimit="10" pointer-events="none"/><path d="M 32 482 L 32 512 L 32 542 L 32 572 L 32 602 L 32 632 L 32 662 L 32 692" fill="none" stroke="rgb(0, 0, 0)" stroke-miterlimit="10" pointer-events="none"/><g fill="rgb(0, 0, 0)" font-family="Helvetica" font-weight="bold" pointer-events="none" text-anchor="middle" font-size="10px"><text x="91.5" y="470.5">Receptor</text></g><path d="M 2 482 M 182 482 M 182 512 L 2 512" fill="none" stroke="rgb(0, 0, 0)" stroke-linecap="square" stroke-miterlimit="10" pointer-events="none"/><path d="M 2 482 M 32 482 M 32 512 M 2 512" fill="none" stroke="rgb(0, 0, 0)" stroke-linecap="square" stroke-miterlimit="10" pointer-events="none"/><g fill="rgb(0, 0, 0)" font-family="Helvetica" font-weight="bold" pointer-events="none" clip-path="url(#mx-clip-2-482-30-30-0)" text-anchor="middle" font-size="10px"><text x="16.5" y="500.5">PK</text></g><path d="M 32 482 M 182 482 M 182 512 M 32 512" fill="none" stroke="rgb(0, 0, 0)" stroke-linecap="square" stroke-miterlimit="10" pointer-events="none"/><g fill="rgb(0, 0, 0)" font-family="Helvetica" font-weight="bold" text-decoration="underline" pointer-events="none" clip-path="url(#mx-clip-38-482-144-30-0)" font-size="10px"><text x="39.5" y="500.5">ID</text></g><path d="M 2 512 M 32 512 M 32 542 M 2 542" fill="none" stroke="rgb(0, 0, 0)" stroke-linecap="square" stroke-miterlimit="10" pointer-events="none"/><path d="M 32 512 M 182 512 M 182 542 M 32 542" fill="none" stroke="rgb(0, 0, 0)" stroke-linecap="square" stroke-miterlimit="10" pointer-events="none"/><g fill="rgb(0, 0, 0)" font-family="Helvetica" font-weight="bold" text-decoration="underline" pointer-events="none" clip-path="url(#mx-clip-38-512-144-30-0)" font-size="10px"><text x="39.5" y="530.5">Unique RGCT</text></g><path d="M 2 542 M 32 542 M 32 572 M 2 572" fill="none" stroke="rgb(0, 0, 0)" stroke-linecap="square" stroke-miterlimit="10" pointer-events="none"/><path d="M 32 542 M 182 542 M 182 572 M 32 572" fill="none" stroke="rgb(0, 0, 0)" stroke-linecap="square" stroke-miterlimit="10" pointer-events="none"/><g fill="rgb(0, 0, 0)" font-family="Helvetica" pointer-events="none" clip-path="url(#mx-clip-38-542-144-30-0)" font-size="10px"><text x="39.5" y="560.5">Tipo sanguíneo</text></g><path d="M 2 572 M 32 572 M 32 602 M 2 602" fill="none" stroke="rgb(0, 0, 0)" stroke-linecap="square" stroke-miterlimit="10" pointer-events="none"/><path d="M 32 572 M 182 572 M 182 602 M 32 602" fill="none" stroke="rgb(0, 0, 0)" stroke-linecap="square" stroke-miterlimit="10" pointer-events="none"/><g fill="rgb(0, 0, 0)" font-family="Helvetica" pointer-events="none" clip-path="url(#mx-clip-38-572-144-30-0)" font-size="10px"><text x="39.5" y="590.5">Possui comorbidade </text></g><path d="M 2 602 M 32 602 M 32 632 M 2 632" fill="none" stroke="rgb(0, 0, 0)" stroke-linecap="square" stroke-miterlimit="10" pointer-events="none"/><path d="M 32 602 M 182 602 M 182 632 M 32 632" fill="none" stroke="rgb(0, 0, 0)" stroke-linecap="square" stroke-miterlimit="10" pointer-events="none"/><g fill="rgb(0, 0, 0)" font-family="Helvetica" pointer-events="none" clip-path="url(#mx-clip-38-602-144-30-0)" font-size="10px"><text x="39.5" y="620.5">Descrição da comorbidade</text></g><path d="M 2 632 L 32 632 M 32 662 M 2 662" fill="none" stroke="rgb(0, 0, 0)" stroke-linecap="square" stroke-miterlimit="10" pointer-events="none"/><g fill="rgb(0, 0, 0)" font-family="Helvetica" font-weight="bold" text-decoration="underline" pointer-events="none" clip-path="url(#mx-clip-2-632-30-30-0)" text-anchor="middle" font-size="10px"><text x="16.5" y="650.5">FK</text></g><path d="M 32 632 L 182 632 M 182 662 M 32 662" fill="none" stroke="rgb(0, 0, 0)" stroke-linecap="square" stroke-miterlimit="10" pointer-events="none"/><g fill="rgb(0, 0, 0)" font-family="Helvetica" font-weight="bold" text-decoration="underline" pointer-events="none" clip-path="url(#mx-clip-38-632-144-30-0)" font-size="10px"><text x="39.5" y="650.5">ID do Usuário</text></g><path d="M 2 662 M 32 662 M 32 692 M 2 692" fill="none" stroke="rgb(0, 0, 0)" stroke-linecap="square" stroke-miterlimit="10" pointer-events="none"/><g fill="rgb(0, 0, 0)" font-family="Helvetica" font-weight="bold" text-decoration="underline" pointer-events="none" clip-path="url(#mx-clip-2-662-30-30-0)" text-anchor="middle" font-size="10px"><text x="16.5" y="680.5">FK</text></g><path d="M 32 662 M 182 662 M 182 692 M 32 692" fill="none" stroke="rgb(0, 0, 0)" stroke-linecap="square" stroke-miterlimit="10" pointer-events="none"/><g fill="rgb(0, 0, 0)" font-family="Helvetica" font-weight="bold" text-decoration="underline" pointer-events="none" clip-path="url(#mx-clip-38-662-144-30-0)" font-size="10px"><text x="39.5" y="680.5">ID do Órgão</text></g><path d="M 332 732 L 332 702 L 512 702 L 512 732" fill="rgb(255, 255, 255)" stroke="rgb(0, 0, 0)" stroke-miterlimit="10" pointer-events="none"/><path d="M 332 732 L 332 852 L 512 852 L 512 732" fill="none" stroke="rgb(0, 0, 0)" stroke-miterlimit="10" pointer-events="none"/><path d="M 332 732 L 512 732" fill="none" stroke="rgb(0, 0, 0)" stroke-miterlimit="10" pointer-events="none"/><path d="M 362 732 L 362 762 L 362 792 L 362 822 L 362 852" fill="none" stroke="rgb(0, 0, 0)" stroke-miterlimit="10" pointer-events="none"/><g fill="rgb(0, 0, 0)" font-family="Helvetica" font-weight="bold" pointer-events="none" text-anchor="middle" font-size="10px"><text x="421.5" y="720.5">Órgão</text></g><path d="M 332 732 M 512 732 M 512 762 L 332 762" fill="none" stroke="rgb(0, 0, 0)" stroke-linecap="square" stroke-miterlimit="10" pointer-events="none"/><path d="M 332 732 M 362 732 M 362 762 M 332 762" fill="none" stroke="rgb(0, 0, 0)" stroke-linecap="square" stroke-miterlimit="10" pointer-events="none"/><g fill="rgb(0, 0, 0)" font-family="Helvetica" font-weight="bold" pointer-events="none" clip-path="url(#mx-clip-332-732-30-30-0)" text-anchor="middle" font-size="10px"><text x="346.5" y="750.5">PK</text></g><path d="M 362 732 M 512 732 M 512 762 M 362 762" fill="none" stroke="rgb(0, 0, 0)" stroke-linecap="square" stroke-miterlimit="10" pointer-events="none"/><g fill="rgb(0, 0, 0)" font-family="Helvetica" font-weight="bold" text-decoration="underline" pointer-events="none" clip-path="url(#mx-clip-368-732-144-30-0)" font-size="10px"><text x="369.5" y="750.5">ID</text></g><path d="M 332 762 M 362 762 M 362 792 M 332 792" fill="none" stroke="rgb(0, 0, 0)" stroke-linecap="square" stroke-miterlimit="10" pointer-events="none"/><path d="M 362 762 M 512 762 M 512 792 M 362 792" fill="none" stroke="rgb(0, 0, 0)" stroke-linecap="square" stroke-miterlimit="10" pointer-events="none"/><g fill="rgb(0, 0, 0)" font-family="Helvetica" pointer-events="none" clip-path="url(#mx-clip-368-762-144-30-0)" font-size="10px"><text x="369.5" y="780.5">Nome</text></g><path d="M 332 792 M 362 792 M 362 822 M 332 822" fill="none" stroke="rgb(0, 0, 0)" stroke-linecap="square" stroke-miterlimit="10" pointer-events="none"/><path d="M 362 792 M 512 792 M 512 822 M 362 822" fill="none" stroke="rgb(0, 0, 0)" stroke-linecap="square" stroke-miterlimit="10" pointer-events="none"/><g fill="rgb(0, 0, 0)" font-family="Helvetica" pointer-events="none" clip-path="url(#mx-clip-368-792-144-30-0)" font-size="10px"><text x="369.5" y="810.5">Tempo de Isquemia</text></g><path d="M 332 822 M 362 822 M 362 852 M 332 852" fill="none" stroke="rgb(0, 0, 0)" stroke-linecap="square" stroke-miterlimit="10" pointer-events="none"/><path d="M 362 822 M 512 822 M 512 852 M 362 852" fill="none" stroke="rgb(0, 0, 0)" stroke-linecap="square" stroke-miterlimit="10" pointer-events="none"/><g fill="rgb(0, 0, 0)" font-family="Helvetica" pointer-events="none" clip-path="url(#mx-clip-368-822-144-30-0)" font-size="10px"><text x="369.5" y="840.5">Tipo</text></g><path d="M 652 672 L 652 642 L 832 642 L 832 672" fill="rgb(255, 255, 255)" stroke="rgb(0, 0, 0)" stroke-miterlimit="10" pointer-events="none"/><path d="M 652 672 L 652 882 L 832 882 L 832 672" fill="none" stroke="rgb(0, 0, 0)" stroke-miterlimit="10" pointer-events="none"/><path d="M 652 672 L 832 672" fill="none" stroke="rgb(0, 0, 0)" stroke-miterlimit="10" pointer-events="none"/><path d="M 682 672 L 682 702 L 682 732 L 682 762 L 682 792 L 682 822 L 682 852 L 682 882" fill="none" stroke="rgb(0, 0, 0)" stroke-miterlimit="10" pointer-events="none"/><g fill="rgb(0, 0, 0)" font-family="Helvetica" font-weight="bold" pointer-events="none" text-anchor="middle" font-size="10px"><text x="741.5" y="660.5">Doador</text></g><path d="M 652 672 M 832 672 M 832 702 L 652 702" fill="none" stroke="rgb(0, 0, 0)" stroke-linecap="square" stroke-miterlimit="10" pointer-events="none"/><path d="M 652 672 M 682 672 M 682 702 M 652 702" fill="none" stroke="rgb(0, 0, 0)" stroke-linecap="square" stroke-miterlimit="10" pointer-events="none"/><g fill="rgb(0, 0, 0)" font-family="Helvetica" font-weight="bold" pointer-events="none" clip-path="url(#mx-clip-652-672-30-30-0)" text-anchor="middle" font-size="10px"><text x="666.5" y="690.5">PK</text></g><path d="M 682 672 M 832 672 M 832 702 M 682 702" fill="none" stroke="rgb(0, 0, 0)" stroke-linecap="square" stroke-miterlimit="10" pointer-events="none"/><g fill="rgb(0, 0, 0)" font-family="Helvetica" font-weight="bold" text-decoration="underline" pointer-events="none" clip-path="url(#mx-clip-688-672-144-30-0)" font-size="10px"><text x="689.5" y="690.5">ID</text></g><path d="M 652 702 M 682 702 M 682 732 M 652 732" fill="none" stroke="rgb(0, 0, 0)" stroke-linecap="square" stroke-miterlimit="10" pointer-events="none"/><path d="M 682 702 M 832 702 M 832 732 M 682 732" fill="none" stroke="rgb(0, 0, 0)" stroke-linecap="square" stroke-miterlimit="10" pointer-events="none"/><g fill="rgb(0, 0, 0)" font-family="Helvetica" pointer-events="none" clip-path="url(#mx-clip-688-702-144-30-0)" font-size="10px"><text x="689.5" y="720.5">Nome Completo</text></g><path d="M 652 732 M 682 732 M 682 762 M 652 762" fill="none" stroke="rgb(0, 0, 0)" stroke-linecap="square" stroke-miterlimit="10" pointer-events="none"/><path d="M 682 732 M 832 732 M 832 762 M 682 762" fill="none" stroke="rgb(0, 0, 0)" stroke-linecap="square" stroke-miterlimit="10" pointer-events="none"/><g fill="rgb(0, 0, 0)" font-family="Helvetica" pointer-events="none" clip-path="url(#mx-clip-688-732-144-30-0)" font-size="10px"><text x="689.5" y="750.5">Tipo Sanguíneo</text></g><path d="M 652 762 M 682 762 M 682 792 M 652 792" fill="none" stroke="rgb(0, 0, 0)" stroke-linecap="square" stroke-miterlimit="10" pointer-events="none"/><path d="M 682 762 M 832 762 M 832 792 M 682 792" fill="none" stroke="rgb(0, 0, 0)" stroke-linecap="square" stroke-miterlimit="10" pointer-events="none"/><g fill="rgb(0, 0, 0)" font-family="Helvetica" pointer-events="none" clip-path="url(#mx-clip-688-762-144-30-0)" font-size="10px"><text x="689.5" y="780.5">Tipo</text></g><path d="M 652 792 M 682 792 M 682 822 M 652 822" fill="none" stroke="rgb(0, 0, 0)" stroke-linecap="square" stroke-miterlimit="10" pointer-events="none"/><path d="M 682 792 M 832 792 M 832 822 M 682 822" fill="none" stroke="rgb(0, 0, 0)" stroke-linecap="square" stroke-miterlimit="10" pointer-events="none"/><g fill="rgb(0, 0, 0)" font-family="Helvetica" pointer-events="none" clip-path="url(#mx-clip-688-792-144-30-0)" font-size="10px"><text x="689.5" y="810.5">Causa da morte</text></g><path d="M 652 822 L 682 822 M 682 852 M 652 852" fill="none" stroke="rgb(0, 0, 0)" stroke-linecap="square" stroke-miterlimit="10" pointer-events="none"/><g fill="rgb(0, 0, 0)" font-family="Helvetica" font-weight="bold" text-decoration="underline" pointer-events="none" clip-path="url(#mx-clip-652-822-30-30-0)" text-anchor="middle" font-size="10px"><text x="666.5" y="840.5">FK</text></g><path d="M 682 822 L 832 822 M 832 852 M 682 852" fill="none" stroke="rgb(0, 0, 0)" stroke-linecap="square" stroke-miterlimit="10" pointer-events="none"/><g fill="rgb(0, 0, 0)" font-family="Helvetica" font-weight="bold" text-decoration="underline" pointer-events="none" clip-path="url(#mx-clip-688-822-144-30-0)" font-size="10px"><text x="689.5" y="840.5">ID Órgão</text></g><path d="M 652 852 M 682 852 M 682 882 M 652 882" fill="none" stroke="rgb(0, 0, 0)" stroke-linecap="square" stroke-miterlimit="10" pointer-events="none"/><g fill="rgb(0, 0, 0)" font-family="Helvetica" font-weight="bold" text-decoration="underline" pointer-events="none" clip-path="url(#mx-clip-652-852-30-30-0)" text-anchor="middle" font-size="10px"><text x="666.5" y="870.5">FK</text></g><path d="M 682 852 M 832 852 M 832 882 M 682 882" fill="none" stroke="rgb(0, 0, 0)" stroke-linecap="square" stroke-miterlimit="10" pointer-events="none"/><g fill="rgb(0, 0, 0)" font-family="Helvetica" font-weight="bold" text-decoration="underline" pointer-events="none" clip-path="url(#mx-clip-688-852-144-30-0)" font-size="10px"><text x="689.5" y="870.5">ID da Instituição</text></g><path d="M 567 107 L 537 107 L 492 227 L 462 227" fill="none" stroke="rgb(0, 0, 0)" stroke-miterlimit="10" pointer-events="none"/><path d="M 470 223 L 470 231 M 462 231 L 470 227 L 462 223" fill="none" stroke="rgb(0, 0, 0)" stroke-miterlimit="10" pointer-events="none"/><path d="M 522 537 L 492 537 L 492 377 L 462 377" fill="none" stroke="rgb(0, 0, 0)" stroke-miterlimit="10" pointer-events="none"/><path d="M 470 373 L 470 381 M 462 381 L 470 377 L 462 373" fill="none" stroke="rgb(0, 0, 0)" stroke-miterlimit="10" pointer-events="none"/><path d="M 282 227 L 252 227 L 212 587 L 182 587" fill="none" stroke="rgb(0, 0, 0)" stroke-miterlimit="10" pointer-events="none"/><path d="M 190 583 L 190 591 M 182 591 L 190 587 L 182 583" fill="none" stroke="rgb(0, 0, 0)" stroke-miterlimit="10" pointer-events="none"/><path d="M 332 777 L 302 777 L 212 647 L 182 647" fill="none" stroke="rgb(0, 0, 0)" stroke-miterlimit="10" pointer-events="none"/><path d="M 190 643 L 190 651 M 182 651 L 190 647 L 182 643" fill="none" stroke="rgb(0, 0, 0)" stroke-miterlimit="10" pointer-events="none"/><path d="M 512 777 L 542 777 L 622 777 L 652 777" fill="none" stroke="rgb(0, 0, 0)" stroke-miterlimit="10" pointer-events="none"/><path d="M 644 781 L 644 773 M 652 773 L 644 777 L 652 781" fill="none" stroke="rgb(0, 0, 0)" stroke-miterlimit="10" pointer-events="none"/><path d="M 462 317 L 492 317 L 782 197 L 812 197" fill="none" stroke="rgb(0, 0, 0)" stroke-miterlimit="10" pointer-events="none"/><path d="M 804 201 L 804 193 M 812 193 L 804 197 L 812 201" fill="none" stroke="rgb(0, 0, 0)" stroke-miterlimit="10" pointer-events="none"/><path d="M 461.82 326.09 L 491.82 326.09 L 722 437 L 752 437" fill="none" stroke="rgb(0, 0, 0)" stroke-miterlimit="10" pointer-events="none"/><path d="M 744 441 L 744 433 M 752 433 L 744 437 L 752 441" fill="none" stroke="rgb(0, 0, 0)" stroke-miterlimit="10" pointer-events="none"/><path d="M 1042 672 L 1012 672 L 962 467 L 932 467" fill="none" stroke="rgb(0, 0, 0)" stroke-miterlimit="10" pointer-events="none"/><path d="M 940 463 L 940 471 M 932 471 L 940 467 L 932 463" fill="none" stroke="rgb(0, 0, 0)" stroke-miterlimit="10" pointer-events="none"/><path d="M 952 717 L 922 717 L 860.56 771.84 L 830.56 771.84" fill="none" stroke="rgb(0, 0, 0)" stroke-miterlimit="10" pointer-events="none"/><path d="M 838.56 767.84 L 838.56 775.84 M 830.56 775.84 L 838.56 771.84 L 830.56 767.84" fill="none" stroke="rgb(0, 0, 0)" stroke-miterlimit="10" pointer-events="none"/><path d="M 1087 672 L 1057 672 L 1022 287 L 992 287" fill="none" stroke="rgb(0, 0, 0)" stroke-miterlimit="10" pointer-events="none"/><path d="M 1000 283 L 1000 291 M 992 291 L 1000 287 L 992 283" fill="none" stroke="rgb(0, 0, 0)" stroke-miterlimit="10" pointer-events="none"/></g></svg>